<svg width="258" height="74" viewBox="0 0 258 74" fill="none" xmlns="http://www.w3.org/2000/svg">
<path d="M74 37C74 27.187 70.1018 17.7759 63.163 10.8371C56.2241 3.8982 46.813 7.40862e-07 37 0C27.187 -7.40862e-07 17.7759 3.8982 10.8371 10.837C3.89821 17.7759 1.48172e-06 27.187 0 37H14.8C14.8 31.1122 17.1389 25.4655 21.3022 21.3022C25.4655 17.1389 31.1122 14.8 37 14.8C42.8878 14.8 48.5345 17.1389 52.6978 21.3022C56.8611 25.4655 59.2 31.1122 59.2 37H74Z" fill="#804BFB"/>
<path d="M70.5334 52.6369C67.5661 59.0002 62.8495 64.3879 56.9345 68.1707C51.0195 71.9535 44.1503 73.9753 37.1292 73.9998C30.108 74.0243 23.2248 72.0506 17.2836 68.3092C11.3423 64.5677 6.58822 59.2131 3.5766 52.8706L12.2667 48.7442C14.4953 53.4377 18.0133 57.4001 22.4098 60.1688C26.8064 62.9374 31.8999 64.398 37.0956 64.3798C42.2912 64.3617 47.3744 62.8656 51.7515 60.0663C56.1286 57.2671 59.6189 53.2802 61.8147 48.5713L70.5334 52.6369Z" fill="#F22883"/>
<circle cx="37" cy="37" r="15" fill="#FBCD00"/>
<path d="M125.056 53H116.752L109.264 40.088H105.04V53H97.936V17.528H111.52C115.456 17.528 118.464 18.616 120.544 20.792C122.624 22.968 123.664 25.624 123.664 28.76C123.664 31.128 123.04 33.256 121.792 35.144C120.576 37 118.8 38.344 116.464 39.176L125.056 53ZM111.472 24.104H105.04V33.704H110.848C112.64 33.704 114 33.256 114.928 32.36C115.888 31.464 116.368 30.296 116.368 28.856C116.368 27.48 115.92 26.344 115.024 25.448C114.16 24.552 112.976 24.104 111.472 24.104ZM149.583 50.552C147.471 52.6 144.543 53.624 140.799 53.624C137.055 53.624 134.111 52.6 131.967 50.552C129.855 48.472 128.799 45.608 128.799 41.96V26.84H135.567V41.96C135.567 43.624 136.031 44.952 136.959 45.944C137.887 46.936 139.167 47.432 140.799 47.432C142.431 47.432 143.711 46.936 144.639 45.944C145.567 44.952 146.031 43.624 146.031 41.96V26.84H152.799V41.96C152.799 45.64 151.727 48.504 149.583 50.552ZM173.355 26.168C177.067 26.168 180.171 27.496 182.667 30.152C185.163 32.776 186.411 36.04 186.411 39.944C186.411 43.848 185.163 47.112 182.667 49.736C180.171 52.328 177.067 53.624 173.355 53.624C170.059 53.624 167.339 52.328 165.195 49.736V53H158.619V16.52H165.387V29.864C167.563 27.4 170.219 26.168 173.355 26.168ZM167.115 34.616C165.771 36.056 165.099 37.816 165.099 39.896C165.099 41.976 165.771 43.768 167.115 45.272C168.459 46.712 170.187 47.432 172.299 47.432C174.411 47.432 176.139 46.712 177.483 45.272C178.827 43.8 179.499 42.008 179.499 39.896C179.499 37.784 178.827 36.008 177.483 34.568C176.139 33.128 174.411 32.408 172.299 32.408C170.187 32.408 168.459 33.144 167.115 34.616ZM197.918 16.52V53H191.15V16.52H197.918ZM202.602 39.896C202.602 36.024 203.914 32.776 206.538 30.152C209.194 27.464 212.554 26.12 216.618 26.12C220.682 26.12 224.042 27.464 226.698 30.152C229.322 32.776 230.634 36.024 230.634 39.896C230.634 43.8 229.322 47.064 226.698 49.688C224.042 52.344 220.682 53.672 216.618 53.672C212.554 53.672 209.194 52.344 206.538 49.688C203.914 47.064 202.602 43.8 202.602 39.896ZM211.434 45.224C212.81 46.664 214.538 47.384 216.618 47.384C218.634 47.384 220.346 46.664 221.754 45.224C223.162 43.72 223.866 41.944 223.866 39.896C223.866 37.848 223.162 36.088 221.754 34.616C220.346 33.176 218.634 32.456 216.618 32.456C214.538 32.456 212.81 33.176 211.434 34.616C210.058 36.024 209.37 37.784 209.37 39.896C209.37 41.976 210.058 43.752 211.434 45.224ZM248.585 39.848L256.985 53H249.209L244.217 44.408L238.985 53H231.161L239.849 39.656L232.121 26.84H239.849L244.313 34.856L249.113 26.84H256.745L248.585 39.848Z" fill="#323D64"/>
</svg>
